<?xml version="1.0" standalone="no"?>
<!DOCTYPE svg PUBLIC "-//W3C//DTD SVG 20010904//EN"
 "http://www.w3.org/TR/2001/REC-SVG-20010904/DTD/svg10.dtd">
<svg version="1.0" xmlns="http://www.w3.org/2000/svg"
 width="500.000000pt" height="500.000000pt" viewBox="0 0 500.000000 500.000000"
 preserveAspectRatio="xMidYMid meet">
<metadata>
Created by potrace 1.16, written by Peter Selinger 2001-2019
</metadata>
<g transform="translate(0.000000,500.000000) scale(0.100000,-0.100000)"
fill="#000000" stroke="none">
<path d="M0 2500 l0 -2500 2500 0 2500 0 0 2500 0 2500 -2500 0 -2500 0 0
-2500z m2575 1590 c3 -5 13 -10 22 -10 8 0 29 -6 46 -14 30 -13 130 -50 202
-74 17 -6 62 -22 100 -37 39 -15 86 -31 105 -36 19 -6 44 -14 55 -19 40 -17
112 -43 185 -66 41 -14 89 -31 105 -39 17 -7 55 -21 85 -30 52 -16 71 -23 123
-45 28 -11 354 -124 396 -136 9 -3 11 -16 7 -47 -3 -23 -13 -103 -21 -177 -8
-74 -19 -169 -24 -210 -30 -244 -44 -360 -57 -480 -8 -74 -18 -169 -23 -210
-22 -173 -43 -353 -56 -480 -39 -368 -41 -380 -80 -400 -17 -8 -32 -17 -35
-20 -6 -6 -47 -30 -85 -48 -46 -23 -56 -29 -110 -60 -27 -16 -86 -49 -130 -72
-44 -24 -105 -57 -135 -75 -30 -18 -75 -43 -100 -55 -25 -13 -47 -26 -50 -29
-3 -3 -30 -19 -60 -34 -30 -15 -73 -39 -95 -52 -22 -14 -47 -28 -55 -31 -8 -3
-19 -8 -25 -10 -5 -2 -28 -16 -50 -29 -22 -14 -56 -33 -75 -41 -19 -9 -37 -19
-40 -23 -3 -4 -36 -23 -73 -41 -37 -19 -77 -43 -87 -53 -25 -22 -49 -22 -69 2
-9 10 -32 26 -51 35 -19 9 -66 34 -105 55 -38 22 -81 46 -95 54 -14 8 -54 31
-90 51 -36 20 -96 53 -135 73 -38 19 -81 43 -95 53 -14 9 -58 34 -97 55 -40
20 -73 41 -73 46 0 5 -7 9 -16 9 -8 0 -46 18 -84 40 -38 22 -72 40 -77 40 -4
0 -31 15 -58 33 -28 18 -72 44 -100 57 -27 14 -52 27 -55 30 -3 3 -23 14 -45
25 -22 11 -45 26 -51 34 -6 8 -17 64 -24 125 -7 61 -16 140 -20 176 -5 36 -15
128 -24 205 -15 145 -39 350 -56 490 -6 44 -17 141 -25 215 -12 121 -25 230
-56 485 -5 44 -12 107 -15 140 -4 33 -10 64 -15 69 -5 6 -9 24 -9 42 0 31 2
32 83 58 45 15 91 31 102 35 11 5 31 13 45 19 14 5 61 22 105 37 44 15 127 44
185 65 130 46 140 50 165 60 11 5 45 16 75 25 30 9 69 23 85 30 17 7 73 27
125 45 52 17 105 35 118 40 58 25 69 30 102 39 19 5 67 22 105 36 39 15 87 32
107 39 20 6 40 15 44 19 11 11 122 8 129 -3z"/>
</g>
</svg>
