<?xml version="1.0" standalone="no"?>
<!DOCTYPE svg PUBLIC "-//W3C//DTD SVG 20010904//EN"
 "http://www.w3.org/TR/2001/REC-SVG-20010904/DTD/svg10.dtd">
<svg version="1.0" xmlns="http://www.w3.org/2000/svg"
 width="500.000000pt" height="500.000000pt" viewBox="0 0 500.000000 500.000000"
 preserveAspectRatio="xMidYMid meet">
<metadata>
Created by potrace 1.16, written by Peter Selinger 2001-2019
</metadata>
<g transform="translate(0.000000,500.000000) scale(0.100000,-0.100000)"
fill="#000000" stroke="none">
<path d="M0 2500 l0 -2500 2500 0 2500 0 0 2500 0 2500 -2500 0 -2500 0 0
-2500z m3845 1433 c-4 -60 -10 -112 -13 -118 -4 -5 -5 -19 -4 -30 2 -12 -11
-176 -27 -365 -17 -190 -33 -384 -37 -433 -4 -48 -10 -90 -15 -93 -4 -2 -6
-11 -3 -19 6 -16 -34 -530 -44 -555 -3 -8 -4 -23 -3 -32 1 -10 -8 -129 -19
-265 -12 -137 -32 -360 -44 -497 l-21 -248 -43 -15 c-24 -8 -46 -12 -50 -9 -3
3 -10 1 -17 -4 -12 -10 -221 -73 -450 -135 -33 -9 -79 -23 -103 -32 -23 -9
-45 -13 -49 -10 -3 4 -12 2 -19 -4 -13 -10 -139 -48 -179 -54 -11 -1 -32 -7
-47 -13 -15 -6 -53 -19 -85 -28 -64 -19 -112 -12 -228 32 -11 4 -23 7 -27 6
-4 -1 -35 7 -70 18 -35 10 -88 26 -118 34 -30 8 -98 27 -150 41 -52 15 -110
31 -127 36 -18 5 -48 13 -65 18 -81 24 -178 51 -233 66 -33 9 -65 21 -71 26
-6 5 -13 6 -16 3 -4 -3 -26 1 -50 9 l-43 15 -27 318 c-29 354 -87 1055 -118
1439 -11 138 -20 259 -19 270 1 11 -1 27 -4 35 -3 8 -15 141 -27 295 -11 154
-24 308 -27 343 l-6 62 1353 0 1352 0 -7 -107z"/>
</g>
</svg>
