<?xml version="1.0" standalone="no"?>
<!DOCTYPE svg PUBLIC "-//W3C//DTD SVG 20010904//EN"
 "http://www.w3.org/TR/2001/REC-SVG-20010904/DTD/svg10.dtd">
<svg version="1.0" xmlns="http://www.w3.org/2000/svg"
 width="500.000000pt" height="500.000000pt" viewBox="0 0 500.000000 500.000000"
 preserveAspectRatio="xMidYMid meet">
<metadata>
Created by potrace 1.16, written by Peter Selinger 2001-2019
</metadata>
<g transform="translate(0.000000,500.000000) scale(0.100000,-0.100000)"
fill="#000000" stroke="none">
<path d="M0 2500 l0 -2500 2500 0 2500 0 0 2500 0 2500 -2500 0 -2500 0 0
-2500z m2766 1685 c94 -14 121 -20 254 -59 185 -53 390 -160 555 -289 87 -68
261 -243 305 -307 14 -19 32 -44 42 -54 10 -11 18 -23 18 -27 0 -4 6 -14 14
-21 28 -29 144 -250 181 -348 38 -100 82 -265 91 -340 9 -75 19 -431 12 -467
-3 -21 -8 -58 -11 -83 -6 -59 -40 -205 -64 -280 -21 -67 -102 -248 -129 -292
-13 -21 -24 -41 -24 -46 0 -8 -88 -136 -112 -163 -8 -9 -29 -36 -46 -60 -32
-46 -210 -222 -278 -275 -114 -89 -333 -211 -434 -243 -25 -8 -49 -18 -55 -21
-53 -37 -1080 -36 -1170 0 -11 4 -36 13 -55 20 -62 22 -268 128 -332 171 -136
92 -325 266 -389 359 -13 19 -30 42 -37 50 -24 27 -112 154 -112 162 0 5 -11
25 -24 46 -27 44 -108 225 -129 292 -24 75 -58 221 -64 280 -3 25 -8 62 -11
83 -7 36 3 392 12 467 9 75 53 240 91 340 37 98 153 319 181 348 8 7 14 17 14
21 0 4 8 16 18 27 10 10 28 35 42 54 45 66 214 235 305 307 162 127 338 219
545 286 96 31 142 42 285 66 86 15 402 12 511 -4z"/>
</g>
</svg>
