<?xml version="1.0" standalone="no"?>
<!DOCTYPE svg PUBLIC "-//W3C//DTD SVG 20010904//EN"
 "http://www.w3.org/TR/2001/REC-SVG-20010904/DTD/svg10.dtd">
<svg version="1.0" xmlns="http://www.w3.org/2000/svg"
 width="500.000000pt" height="500.000000pt" viewBox="0 0 500.000000 500.000000"
 preserveAspectRatio="xMidYMid meet">
<metadata>
Created by potrace 1.16, written by Peter Selinger 2001-2019
</metadata>
<g transform="translate(0.000000,500.000000) scale(0.100000,-0.100000)"
fill="#000000" stroke="none">
<path d="M0 2500 l0 -2500 2500 0 2500 0 0 2500 0 2500 -2500 0 -2500 0 0
-2500z m2610 1729 c59 -36 1597 -1578 1620 -1625 27 -56 27 -159 0 -211 -28
-54 -1585 -1605 -1632 -1626 -45 -21 -146 -22 -193 -3 -41 17 -1579 1545
-1626 1616 -29 43 -30 49 -27 130 3 73 7 90 31 125 15 22 27 36 27 32 0 -4 20
14 45 40 25 25 45 50 45 55 0 4 4 8 8 8 8 0 54 43 99 91 12 13 40 42 62 63 23
21 41 43 41 47 0 5 4 9 9 9 11 0 101 90 101 101 0 5 3 9 8 9 4 0 25 18 47 41
22 22 51 50 64 62 43 39 91 91 91 99 0 4 4 8 9 8 10 0 95 81 96 92 0 3 14 17
30 29 17 13 39 34 50 48 11 13 31 34 44 45 40 34 91 90 91 98 0 4 6 8 13 9 6
0 30 22 52 49 48 59 258 270 268 270 2 0 25 20 50 45 26 25 45 45 42 45 -3 0
14 17 37 38 24 20 47 43 52 50 4 8 20 24 34 35 14 12 35 33 46 46 32 37 74 50
156 51 59 0 82 -5 110 -21z"/>
</g>
</svg>
