<?xml version="1.0" standalone="no"?>
<!DOCTYPE svg PUBLIC "-//W3C//DTD SVG 20010904//EN"
 "http://www.w3.org/TR/2001/REC-SVG-20010904/DTD/svg10.dtd">
<svg version="1.0" xmlns="http://www.w3.org/2000/svg"
 width="500.000000pt" height="500.000000pt" viewBox="0 0 500.000000 500.000000"
 preserveAspectRatio="xMidYMid meet">
<metadata>
Created by potrace 1.16, written by Peter Selinger 2001-2019
</metadata>
<g transform="translate(0.000000,500.000000) scale(0.100000,-0.100000)"
fill="#000000" stroke="none">
<path d="M0 2500 l0 -2500 2500 0 2500 0 0 2500 0 2500 -2500 0 -2500 0 0
-2500z m3916 1553 c-3 -27 -13 -127 -21 -223 -15 -172 -56 -635 -155 -1740
-27 -305 -55 -622 -62 -704 -8 -106 -16 -154 -27 -167 -10 -10 -71 -32 -151
-54 -152 -42 -350 -96 -650 -180 -113 -32 -238 -66 -279 -77 l-74 -19 -111 30
c-61 16 -185 51 -276 77 -91 25 -221 61 -290 80 -69 19 -132 37 -140 40 -8 4
-18 7 -22 6 -4 -1 -35 7 -70 17 -35 10 -102 29 -150 42 -52 14 -90 30 -94 39
-6 17 -21 174 -89 935 -25 281 -65 737 -90 1015 -25 278 -52 586 -60 685 -9
99 -18 195 -21 213 l-5 32 1421 0 1422 0 -6 -47z"/>
</g>
</svg>
