<?xml version="1.0" standalone="no"?>
<!DOCTYPE svg PUBLIC "-//W3C//DTD SVG 20010904//EN"
 "http://www.w3.org/TR/2001/REC-SVG-20010904/DTD/svg10.dtd">
<svg version="1.0" xmlns="http://www.w3.org/2000/svg"
 width="500.000000pt" height="500.000000pt" viewBox="0 0 500.000000 500.000000"
 preserveAspectRatio="xMidYMid meet">

<g transform="translate(0.000000,500.000000) scale(0.100000,-0.100000)"
fill="#000000" stroke="none">
<path d="M0 2500 l0 -2500 2500 0 2500 0 0 2500 0 2500 -2500 0 -2500 0 0
-2500z m3641 -118 c92 -42 148 -136 156 -261 5 -68 2 -82 -21 -131 -30 -64
-95 -131 -179 -184 -72 -46 -124 -69 -260 -113 -95 -31 -109 -33 -122 -19 -25
25 -17 43 33 75 53 36 260 221 261 235 1 6 9 19 20 30 10 12 24 42 30 67 12
41 11 52 -7 90 -17 40 -26 47 -88 72 -38 15 -99 31 -136 35 -37 5 -70 11 -73
14 -3 3 -3 17 0 31 7 26 30 37 150 74 60 18 181 10 236 -15z m-1547 -38 c11
-30 -8 -43 -97 -65 -51 -12 -115 -33 -144 -46 -28 -12 -58 -23 -65 -23 -26 -1
26 -23 61 -26 187 -15 465 -21 654 -13 283 11 378 17 397 22 8 3 77 14 153 26
134 22 139 22 152 4 10 -13 10 -22 3 -31 -15 -18 -66 -53 -81 -56 -7 -1 -28
-12 -47 -24 -19 -12 -41 -20 -47 -17 -7 2 -13 0 -13 -5 0 -9 -145 -57 -198
-66 -15 -2 -56 -11 -92 -19 -116 -25 -231 -36 -445 -42 -424 -12 -721 46 -792
154 -10 14 -18 44 -18 66 0 33 6 45 35 69 52 44 82 57 183 79 85 19 339 39
379 31 9 -2 19 -10 22 -18z m-125 -409 c2 -12 -7 -27 -25 -42 -23 -18 -26 -25
-15 -32 41 -26 438 -44 599 -26 99 11 206 25 252 35 25 4 73 14 106 20 l62 12
74 -50 c98 -66 107 -78 82 -102 -26 -25 -484 -113 -501 -96 -3 3 -12 1 -18 -4
-31 -25 -498 -28 -538 -3 -6 4 -20 6 -29 5 -41 -7 -214 52 -245 84 -8 8 -17
14 -21 14 -11 0 -32 51 -32 77 0 13 5 23 10 23 6 0 10 6 10 13 1 19 49 50 120
74 76 26 103 25 109 -2z m84 -364 c2 -11 0 -24 -6 -30 -16 -16 -9 -19 93 -37
154 -27 412 -23 580 8 l135 25 98 -60 c55 -33 101 -66 104 -74 3 -7 -1 -20 -8
-29 -12 -15 -74 -45 -87 -42 -4 1 -20 -4 -37 -11 -220 -93 -758 -95 -961 -5
-21 9 -41 18 -44 19 -73 26 -114 94 -95 157 17 53 95 94 186 97 28 1 38 -3 42
-18z m-289 -247 c10 -27 -6 -42 -57 -54 -126 -27 -240 -67 -232 -81 3 -4 27
-12 55 -19 28 -7 53 -16 56 -21 3 -5 9 -7 13 -4 5 2 35 0 67 -5 207 -35 339
-43 704 -45 206 -1 380 1 385 5 6 4 53 11 105 15 52 3 139 13 192 21 53 8 101
14 105 13 4 -1 15 0 23 4 8 3 53 13 100 22 47 10 121 29 165 44 79 26 80 26
77 58 -2 24 2 34 18 43 19 10 26 7 57 -26 31 -33 35 -42 30 -77 -3 -21 -16
-50 -29 -64 -24 -26 -78 -58 -78 -47 0 4 -8 0 -17 -8 -10 -8 -40 -23 -68 -33
-27 -9 -59 -21 -70 -25 -22 -9 -68 -20 -101 -24 -11 -1 -24 -5 -30 -8 -28 -18
-379 -67 -522 -74 -53 -2 -97 -6 -100 -9 -7 -7 -707 -7 -714 0 -2 3 -54 7
-114 10 -132 6 -276 27 -383 55 -79 22 -178 77 -174 97 1 6 -4 17 -12 23 -9 7
-15 29 -15 51 0 68 50 103 210 148 19 5 85 15 145 20 198 20 200 20 209 -5z
m2001 -211 c13 -54 -52 -140 -158 -210 -87 -57 -330 -118 -507 -128 -36 -2
-74 -7 -85 -12 -26 -10 -794 -11 -820 0 -11 4 -51 10 -90 12 -72 4 -302 39
-366 56 -39 10 -53 27 -39 49 7 11 129 14 667 17 635 2 762 5 780 16 4 2 33 8
62 12 30 4 93 18 140 32 48 14 93 26 102 27 30 4 204 95 239 124 41 35 67 37
75 5z"/>
</g>
</svg>
