<?xml version="1.0" standalone="no"?>
<!DOCTYPE svg PUBLIC "-//W3C//DTD SVG 20010904//EN"
 "http://www.w3.org/TR/2001/REC-SVG-20010904/DTD/svg10.dtd">
<svg version="1.0" xmlns="http://www.w3.org/2000/svg"
 width="500.000000pt" height="500.000000pt" viewBox="0 0 500.000000 500.000000"
 preserveAspectRatio="xMidYMid meet">
<metadata>
Created by potrace 1.16, written by Peter Selinger 2001-2019
</metadata>
<g transform="translate(0.000000,500.000000) scale(0.100000,-0.100000)"
fill="#000000" stroke="none">
<path d="M0 2500 l0 -2500 2500 0 2500 0 0 2500 0 2500 -2500 0 -2500 0 0
-2500z m2577 1725 c29 -14 53 -30 53 -36 0 -6 4 -8 8 -5 5 3 24 -4 43 -16 19
-12 48 -29 64 -38 17 -10 99 -57 184 -106 84 -49 170 -98 190 -110 20 -11 52
-30 71 -42 19 -12 55 -33 80 -47 25 -14 52 -29 60 -34 8 -5 46 -28 83 -50 38
-23 71 -41 74 -41 3 0 33 -17 67 -37 85 -53 97 -60 131 -77 17 -9 51 -28 76
-43 25 -16 77 -46 115 -67 88 -50 112 -72 135 -121 18 -38 19 -84 19 -850 0
-762 -2 -812 -19 -850 -20 -44 -74 -97 -124 -120 -18 -8 -50 -26 -72 -40 -22
-14 -47 -28 -55 -32 -8 -3 -27 -15 -42 -25 -14 -10 -33 -18 -42 -18 -9 0 -16
-4 -16 -9 0 -5 -12 -16 -27 -24 -62 -31 -98 -52 -103 -58 -3 -4 -25 -17 -50
-30 -38 -20 -189 -107 -240 -139 -8 -5 -31 -18 -50 -29 -39 -21 -77 -42 -131
-74 -20 -12 -72 -42 -114 -67 -43 -25 -99 -57 -124 -72 -25 -14 -62 -34 -81
-44 -19 -10 -37 -21 -40 -25 -15 -21 -173 -99 -200 -99 -27 0 -201 86 -220
109 -3 3 -18 13 -35 21 -40 19 -243 138 -277 161 -15 11 -30 19 -34 19 -4 0
-30 14 -58 32 -46 28 -75 45 -132 77 -11 5 -65 37 -121 71 -56 33 -107 60
-113 60 -5 0 -10 5 -10 10 0 6 -4 10 -8 10 -7 0 -90 46 -220 122 -26 16 -54
31 -62 34 -8 4 -22 13 -30 19 -8 7 -40 25 -70 41 -69 34 -97 59 -121 106 -18
36 -19 71 -19 861 l0 825 33 48 c25 37 56 62 147 117 63 38 122 71 130 75 8 3
26 13 40 22 36 25 206 122 270 156 30 15 66 37 80 47 14 10 39 25 55 33 17 7
39 19 50 26 10 7 46 29 80 48 33 19 69 41 80 48 59 35 97 52 107 46 6 -4 8 -3
5 4 -4 6 28 30 75 58 46 26 116 67 155 91 40 24 76 43 80 43 3 0 14 7 23 15
20 19 87 43 119 44 13 1 48 -10 78 -24z"/>
</g>
</svg>
